<?xml version="1.0" encoding="UTF-8" standalone="no"?>
<!-- Created with Inkscape (http://www.inkscape.org/) -->

<svg
   xmlns:dc="http://purl.org/dc/elements/1.1/"
   xmlns:cc="http://creativecommons.org/ns#"
   xmlns:rdf="http://www.w3.org/1999/02/22-rdf-syntax-ns#"
   xmlns:svg="http://www.w3.org/2000/svg"
   xmlns="http://www.w3.org/2000/svg"
   xmlns:sodipodi="http://sodipodi.sourceforge.net/DTD/sodipodi-0.dtd"
   xmlns:inkscape="http://www.inkscape.org/namespaces/inkscape"
   id="svg2982"
   version="1.1"
   inkscape:version="0.48.3.1 r9886"
   width="2010"
   height="1128"
   sodipodi:docname="merkki copy2.svg">
  <metadata
     id="metadata2988">
    <rdf:RDF>
      <cc:Work
         rdf:about="">
        <dc:format>image/svg+xml</dc:format>
        <dc:type
           rdf:resource="http://purl.org/dc/dcmitype/StillImage" />
        <dc:title />
      </cc:Work>
    </rdf:RDF>
  </metadata>
  <defs
     id="defs2986" />
  <sodipodi:namedview
     pagecolor="#ffffff"
     bordercolor="#666666"
     borderopacity="1"
     objecttolerance="10"
     gridtolerance="10"
     guidetolerance="10"
     inkscape:pageopacity="0"
     inkscape:pageshadow="2"
     inkscape:window-width="1375"
     inkscape:window-height="876"
     id="namedview2984"
     showgrid="false"
     inkscape:zoom="0.35671642"
     inkscape:cx="1005"
     inkscape:cy="564"
     inkscape:window-x="65"
     inkscape:window-y="24"
     inkscape:window-maximized="1"
     inkscape:current-layer="svg2982" />
  <path
     inkscape:connector-curvature="0"
     id="path3032"
     d="m 153.41,781.80335 0,-227 37,0 37,0 0,186 0,186 95.5,0 95.5,0 0,-173.5 0,-173.5 37.5,0 37.5,0 0,173.5 0,173.5 106,0 106,0 0,-193 0,-193 37.5,0 37.5,0 0,234 0,234.00005 -313.5,0 -313.5,0 0,-227.00005 z m 742.24843,-86.75 0.25157,-313.75 40.5,0 40.5,0 0.25157,313.75 0.25158,313.75005 -41.00315,0 -41.00315,0 0.25158,-313.75005 z m 199.99997,0 0.2516,-313.75 40.5,0 40.5,0 0.2516,313.75 0.2515,313.75005 -41.0031,0 -41.0031,0 0.2515,-313.75005 z m 513.0482,311.85335 c -42.0201,-67.28482 -55.3774,-171.18253 -37.2323,-289.60335 3.3079,-21.58822 8.6686,-48.25559 16.5842,-82.5 17.7041,-76.59068 24.6002,-117.82416 26.0066,-155.5 0.9823,-26.31206 -2.1197,-54.39803 -9.1818,-83.13269 -1.9103,-7.77298 -3.4733,-14.41048 -3.4733,-14.75 0,-0.33952 17.0113,-0.61731 37.8028,-0.61731 l 37.8029,0 2.2247,11.75 c 6.0399,31.90012 7.6239,50.59617 7.6463,90.25 0.02,34.95933 -0.7518,47.09681 -5.085,80 -4.642,35.24864 -9.7122,61.55466 -22.2614,115.5 -11.2176,48.22127 -19.0272,90.31084 -22.173,119.5 -1.4222,13.19565 -1.4151,46.46196 0.013,59 3.8858,34.12745 13.0317,68.4436 27.2898,102.39344 2.7964,6.65861 9.282,20.3904 14.4124,30.5151 5.1304,10.1247 9.328,18.56221 9.328,18.75001 0,0.1878 -17.6668,0.3415 -39.2595,0.3415 -37.4637,0 -39.3136,-0.087 -40.4439,-1.8967 z M 1289.0767,734.13668 c -0.3667,-0.36666 -0.6667,-17.91666 -0.6667,-39 l 0,-38.33333 83.5,0 83.5,0 0,39 0,39 -82.8333,0 c -45.5584,0 -83.1334,-0.3 -83.5,-0.66667 z M 1543.91,281.45978 c -19.4723,-6.42725 -31.8816,-23.80895 -31.8816,-44.65643 0,-18.96325 10.0042,-34.7824 27.0457,-42.766 5.2495,-2.45928 6.9412,-2.734 16.8359,-2.734 9.8947,0 11.5864,0.27472 16.8359,2.734 17.0415,7.9836 27.0457,23.80275 27.0457,42.766 0,18.97798 -10.0771,34.89673 -27.0457,42.72397 -4.8055,2.21667 -7.5132,2.74147 -15.3359,2.97235 -5.9275,0.17495 -11.0042,-0.2161 -13.5,-1.03989 z m 160,0 c -19.4723,-6.42725 -31.8816,-23.80895 -31.8816,-44.65643 0,-18.96325 10.0042,-34.7824 27.0457,-42.766 5.2495,-2.45928 6.9412,-2.734 16.8359,-2.734 9.8947,0 11.5864,0.27472 16.8359,2.734 17.0415,7.9836 27.0457,23.80275 27.0457,42.766 0,18.97798 -10.0771,34.89673 -27.0457,42.72397 -4.8055,2.21667 -7.5132,2.74147 -15.3359,2.97235 -5.9275,0.17495 -11.0042,-0.2161 -13.5,-1.03989 z"
     style="fill:#d5eef5" />
  <path
     inkscape:connector-curvature="0"
     id="path3030"
     d="m 153.41,781.80335 0,-227 37,0 37,0 0,186 0,186 95.5,0 95.5,0 0,-173.5 0,-173.5 37.5,0 37.5,0 0,173.5 0,173.5 106,0 106,0 0,-193 0,-193 37.5,0 37.5,0 0,234 0,234.00005 -313.5,0 -313.5,0 0,-227.00005 z m 742.24843,-86.75 0.25157,-313.75 40.5,0 40.5,0 0.25157,313.75 0.25158,313.75005 -41.00315,0 -41.00315,0 0.25158,-313.75005 z m 199.99997,0 0.2516,-313.75 40.5,0 40.5,0 0.2516,313.75 0.2515,313.75005 -41.0031,0 -41.0031,0 0.2515,-313.75005 z m 513.0482,311.85335 c -42.0201,-67.28482 -55.3774,-171.18253 -37.2323,-289.60335 3.3079,-21.58822 8.6686,-48.25559 16.5842,-82.5 17.7041,-76.59068 24.6002,-117.82416 26.0066,-155.5 0.9823,-26.31206 -2.1197,-54.39803 -9.1818,-83.13269 -1.9103,-7.77298 -3.4733,-14.41048 -3.4733,-14.75 0,-0.33952 17.0113,-0.61731 37.8028,-0.61731 l 37.8029,0 2.2247,11.75 c 6.0399,31.90012 7.6239,50.59617 7.6463,90.25 0.02,34.95933 -0.7518,47.09681 -5.085,80 -4.642,35.24864 -9.7122,61.55466 -22.2614,115.5 -11.2176,48.22127 -19.0272,90.31084 -22.173,119.5 -1.4222,13.19565 -1.4151,46.46196 0.013,59 3.8858,34.12745 13.0317,68.4436 27.2898,102.39344 2.7964,6.65861 9.282,20.3904 14.4124,30.5151 5.1304,10.1247 9.328,18.56221 9.328,18.75001 0,0.1878 -17.6668,0.3415 -39.2595,0.3415 -37.4637,0 -39.3136,-0.087 -40.4439,-1.8967 z M 1543.91,281.45978 c -19.4723,-6.42725 -31.8816,-23.80895 -31.8816,-44.65643 0,-18.96325 10.0042,-34.7824 27.0457,-42.766 5.2495,-2.45928 6.9412,-2.734 16.8359,-2.734 9.8947,0 11.5864,0.27472 16.8359,2.734 17.0415,7.9836 27.0457,23.80275 27.0457,42.766 0,18.97798 -10.0771,34.89673 -27.0457,42.72397 -4.8055,2.21667 -7.5132,2.74147 -15.3359,2.97235 -5.9275,0.17495 -11.0042,-0.2161 -13.5,-1.03989 z m 160,0 c -19.4723,-6.42725 -31.8816,-23.80895 -31.8816,-44.65643 0,-18.96325 10.0042,-34.7824 27.0457,-42.766 5.2495,-2.45928 6.9412,-2.734 16.8359,-2.734 9.8947,0 11.5864,0.27472 16.8359,2.734 17.0415,7.9836 27.0457,23.80275 27.0457,42.766 0,18.97798 -10.0771,34.89673 -27.0457,42.72397 -4.8055,2.21667 -7.5132,2.74147 -15.3359,2.97235 -5.9275,0.17495 -11.0042,-0.2161 -13.5,-1.03989 z"
     style="fill:#9edff5" />
</svg>
